<?xml version="1.0" encoding="UTF-8" standalone="no"?>
<!DOCTYPE svg PUBLIC "-//W3C//DTD SVG 1.1//EN"
 "http://www.w3.org/Graphics/SVG/1.1/DTD/svg11.dtd">
<!-- Generated by graphviz version 2.47.0 (20210316.0004)
 -->
<!-- Title: dependencies Pages: 1 -->
<svg width="1060pt" height="211pt"
 viewBox="0.00 0.00 1060.00 211.00" xmlns="http://www.w3.org/2000/svg" xmlns:xlink="http://www.w3.org/1999/xlink">
<g id="graph0" class="graph" transform="scale(1 1) rotate(0) translate(4 207)">
<title>dependencies</title>
<polygon fill="white" stroke="transparent" points="-4,4 -4,-207 1056,-207 1056,4 -4,4"/>
<text text-anchor="start" x="505.01" y="-42.4" font-family="Times-12" font-weight="bold" font-size="14.00">Legend</text>
<polygon fill="#ffffb3" stroke="transparent" points="292,-10 292,-30 312,-30 312,-10 292,-10"/>
<text text-anchor="start" x="315.63" y="-15.4" font-family="Times-12" font-size="14.00"> &#160;Declarations</text>
<polygon fill="#8dd3c7" stroke="transparent" points="405,-10 405,-30 425,-30 425,-10 405,-10"/>
<text text-anchor="start" x="428.73" y="-15.4" font-family="Times-12" font-size="14.00"> &#160;Module</text>
<polygon fill="#80b1d3" stroke="transparent" points="491,-10 491,-30 511,-30 511,-10 491,-10"/>
<text text-anchor="start" x="514.78" y="-15.4" font-family="Times-12" font-size="14.00"> &#160;Bootstrap</text>
<polygon fill="#fdb462" stroke="transparent" points="588,-10 588,-30 608,-30 608,-10 588,-10"/>
<text text-anchor="start" x="611.67" y="-15.4" font-family="Times-12" font-size="14.00"> &#160;Providers</text>
<polygon fill="#fb8072" stroke="transparent" points="684,-10 684,-30 704,-30 704,-10 684,-10"/>
<text text-anchor="start" x="707.73" y="-15.4" font-family="Times-12" font-size="14.00"> &#160;Exports</text>
<g id="clust1" class="cluster">
<title>cluster_ManagePermissionsModule</title>
<polygon fill="none" stroke="black" stroke-dasharray="1,5" points="8,-70 8,-195 1044,-195 1044,-70 8,-70"/>
</g>
<g id="clust7" class="cluster">
<title>cluster_ManagePermissionsModule_imports</title>
<polygon fill="none" stroke="black" points="802,-78 802,-130 1036,-130 1036,-78 802,-78"/>
</g>
<g id="clust2" class="cluster">
<title>cluster_ManagePermissionsModule_declarations</title>
<polygon fill="none" stroke="black" points="16,-78 16,-130 794,-130 794,-78 16,-78"/>
</g>
<!-- DetailPermissionComponent -->
<g id="node1" class="node">
<title>DetailPermissionComponent</title>
<polygon fill="#ffffb3" stroke="black" points="785.76,-122 608.24,-122 608.24,-86 785.76,-86 785.76,-122"/>
<text text-anchor="middle" x="697" y="-99.8" font-family="Times,serif" font-size="14.00">DetailPermissionComponent</text>
</g>
<!-- ManagePermissionsModule -->
<g id="node5" class="node">
<title>ManagePermissionsModule</title>
<polygon fill="#8dd3c7" stroke="black" points="593.3,-187 590.3,-191 569.3,-191 566.3,-187 420.7,-187 420.7,-151 593.3,-151 593.3,-187"/>
<text text-anchor="middle" x="507" y="-164.8" font-family="Times,serif" font-size="14.00">ManagePermissionsModule</text>
</g>
<!-- DetailPermissionComponent&#45;&gt;ManagePermissionsModule -->
<g id="edge1" class="edge">
<title>DetailPermissionComponent&#45;&gt;ManagePermissionsModule</title>
<path fill="none" stroke="black" d="M697,-122.02C697,-139.37 697,-163 697,-163 697,-163 603.38,-163 603.38,-163"/>
<polygon fill="black" stroke="black" points="603.38,-159.5 593.38,-163 603.38,-166.5 603.38,-159.5"/>
</g>
<!-- EditPermissionComponent -->
<g id="node2" class="node">
<title>EditPermissionComponent</title>
<polygon fill="#ffffb3" stroke="black" points="590.39,-122 423.61,-122 423.61,-86 590.39,-86 590.39,-122"/>
<text text-anchor="middle" x="507" y="-99.8" font-family="Times,serif" font-size="14.00">EditPermissionComponent</text>
</g>
<!-- EditPermissionComponent&#45;&gt;ManagePermissionsModule -->
<g id="edge2" class="edge">
<title>EditPermissionComponent&#45;&gt;ManagePermissionsModule</title>
<path fill="none" stroke="black" d="M507,-122.11C507,-122.11 507,-140.99 507,-140.99"/>
<polygon fill="black" stroke="black" points="503.5,-140.99 507,-150.99 510.5,-140.99 503.5,-140.99"/>
</g>
<!-- ManagePermissionsComponent -->
<g id="node3" class="node">
<title>ManagePermissionsComponent</title>
<polygon fill="#ffffb3" stroke="black" points="406.08,-122 211.92,-122 211.92,-86 406.08,-86 406.08,-122"/>
<text text-anchor="middle" x="309" y="-99.8" font-family="Times,serif" font-size="14.00">ManagePermissionsComponent</text>
</g>
<!-- ManagePermissionsComponent&#45;&gt;ManagePermissionsModule -->
<g id="edge3" class="edge">
<title>ManagePermissionsComponent&#45;&gt;ManagePermissionsModule</title>
<path fill="none" stroke="black" d="M309,-122.02C309,-139.37 309,-163 309,-163 309,-163 410.73,-163 410.73,-163"/>
<polygon fill="black" stroke="black" points="410.73,-166.5 420.73,-163 410.73,-159.5 410.73,-166.5"/>
</g>
<!-- NewPermissionComponent -->
<g id="node4" class="node">
<title>NewPermissionComponent</title>
<polygon fill="#ffffb3" stroke="black" points="193.98,-122 24.02,-122 24.02,-86 193.98,-86 193.98,-122"/>
<text text-anchor="middle" x="109" y="-99.8" font-family="Times,serif" font-size="14.00">NewPermissionComponent</text>
</g>
<!-- NewPermissionComponent&#45;&gt;ManagePermissionsModule -->
<g id="edge4" class="edge">
<title>NewPermissionComponent&#45;&gt;ManagePermissionsModule</title>
<path fill="none" stroke="black" d="M109,-122.28C109,-143.32 109,-175 109,-175 109,-175 410.64,-175 410.64,-175"/>
<polygon fill="black" stroke="black" points="410.64,-178.5 420.64,-175 410.64,-171.5 410.64,-178.5"/>
</g>
<!-- ManagePermissionsRoutingModule -->
<g id="node6" class="node">
<title>ManagePermissionsRoutingModule</title>
<polygon fill="#8dd3c7" stroke="black" points="1027.92,-122 1024.92,-126 1003.92,-126 1000.92,-122 810.08,-122 810.08,-86 1027.92,-86 1027.92,-122"/>
<text text-anchor="middle" x="919" y="-99.8" font-family="Times,serif" font-size="14.00">ManagePermissionsRoutingModule</text>
</g>
<!-- ManagePermissionsRoutingModule&#45;&gt;ManagePermissionsModule -->
<g id="edge5" class="edge">
<title>ManagePermissionsRoutingModule&#45;&gt;ManagePermissionsModule</title>
<path fill="none" stroke="black" d="M919,-122.28C919,-143.32 919,-175 919,-175 919,-175 603.37,-175 603.37,-175"/>
<polygon fill="black" stroke="black" points="603.37,-171.5 593.37,-175 603.37,-178.5 603.37,-171.5"/>
</g>
</g>
</svg>
