<?xml version="1.0" encoding="UTF-8" standalone="no"?>
<!DOCTYPE svg PUBLIC "-//W3C//DTD SVG 1.1//EN"
 "http://www.w3.org/Graphics/SVG/1.1/DTD/svg11.dtd">
<!-- Generated by graphviz version 2.47.0 (20210316.0004)
 -->
<!-- Title: dependencies Pages: 1 -->
<svg width="882pt" height="211pt"
 viewBox="0.00 0.00 882.00 211.00" xmlns="http://www.w3.org/2000/svg" xmlns:xlink="http://www.w3.org/1999/xlink">
<g id="graph0" class="graph" transform="scale(1 1) rotate(0) translate(4 207)">
<title>dependencies</title>
<polygon fill="white" stroke="transparent" points="-4,4 -4,-207 878,-207 878,4 -4,4"/>
<text text-anchor="start" x="416.01" y="-42.4" font-family="Times-12" font-weight="bold" font-size="14.00">Legend</text>
<polygon fill="#ffffb3" stroke="transparent" points="203,-10 203,-30 223,-30 223,-10 203,-10"/>
<text text-anchor="start" x="226.63" y="-15.4" font-family="Times-12" font-size="14.00"> &#160;Declarations</text>
<polygon fill="#8dd3c7" stroke="transparent" points="316,-10 316,-30 336,-30 336,-10 316,-10"/>
<text text-anchor="start" x="339.73" y="-15.4" font-family="Times-12" font-size="14.00"> &#160;Module</text>
<polygon fill="#80b1d3" stroke="transparent" points="402,-10 402,-30 422,-30 422,-10 402,-10"/>
<text text-anchor="start" x="425.78" y="-15.4" font-family="Times-12" font-size="14.00"> &#160;Bootstrap</text>
<polygon fill="#fdb462" stroke="transparent" points="499,-10 499,-30 519,-30 519,-10 499,-10"/>
<text text-anchor="start" x="522.67" y="-15.4" font-family="Times-12" font-size="14.00"> &#160;Providers</text>
<polygon fill="#fb8072" stroke="transparent" points="595,-10 595,-30 615,-30 615,-10 595,-10"/>
<text text-anchor="start" x="618.73" y="-15.4" font-family="Times-12" font-size="14.00"> &#160;Exports</text>
<g id="clust1" class="cluster">
<title>cluster_ManageUsersModule</title>
<polygon fill="none" stroke="black" stroke-dasharray="1,5" points="8,-70 8,-195 866,-195 866,-70 8,-70"/>
</g>
<g id="clust7" class="cluster">
<title>cluster_ManageUsersModule_imports</title>
<polygon fill="none" stroke="black" points="660,-78 660,-130 858,-130 858,-78 660,-78"/>
</g>
<g id="clust2" class="cluster">
<title>cluster_ManageUsersModule_declarations</title>
<polygon fill="none" stroke="black" points="16,-78 16,-130 652,-130 652,-78 16,-78"/>
</g>
<!-- DetailUserComponent -->
<g id="node1" class="node">
<title>DetailUserComponent</title>
<polygon fill="#ffffb3" stroke="black" points="643.97,-122 502.03,-122 502.03,-86 643.97,-86 643.97,-122"/>
<text text-anchor="middle" x="573" y="-99.8" font-family="Times,serif" font-size="14.00">DetailUserComponent</text>
</g>
<!-- ManageUsersModule -->
<g id="node5" class="node">
<title>ManageUsersModule</title>
<polygon fill="#8dd3c7" stroke="black" points="486.01,-187 483.01,-191 462.01,-191 459.01,-187 349.99,-187 349.99,-151 486.01,-151 486.01,-187"/>
<text text-anchor="middle" x="418" y="-164.8" font-family="Times,serif" font-size="14.00">ManageUsersModule</text>
</g>
<!-- DetailUserComponent&#45;&gt;ManageUsersModule -->
<g id="edge1" class="edge">
<title>DetailUserComponent&#45;&gt;ManageUsersModule</title>
<path fill="none" stroke="black" d="M573,-122.02C573,-139.37 573,-163 573,-163 573,-163 496.44,-163 496.44,-163"/>
<polygon fill="black" stroke="black" points="496.44,-159.5 486.44,-163 496.44,-166.5 496.44,-159.5"/>
</g>
<!-- EditUserComponent -->
<g id="node2" class="node">
<title>EditUserComponent</title>
<polygon fill="#ffffb3" stroke="black" points="483.59,-122 352.41,-122 352.41,-86 483.59,-86 483.59,-122"/>
<text text-anchor="middle" x="418" y="-99.8" font-family="Times,serif" font-size="14.00">EditUserComponent</text>
</g>
<!-- EditUserComponent&#45;&gt;ManageUsersModule -->
<g id="edge2" class="edge">
<title>EditUserComponent&#45;&gt;ManageUsersModule</title>
<path fill="none" stroke="black" d="M418,-122.11C418,-122.11 418,-140.99 418,-140.99"/>
<polygon fill="black" stroke="black" points="414.5,-140.99 418,-150.99 421.5,-140.99 414.5,-140.99"/>
</g>
<!-- ManageUsersComponent -->
<g id="node3" class="node">
<title>ManageUsersComponent</title>
<polygon fill="#ffffb3" stroke="black" points="334.29,-122 175.71,-122 175.71,-86 334.29,-86 334.29,-122"/>
<text text-anchor="middle" x="255" y="-99.8" font-family="Times,serif" font-size="14.00">ManageUsersComponent</text>
</g>
<!-- ManageUsersComponent&#45;&gt;ManageUsersModule -->
<g id="edge3" class="edge">
<title>ManageUsersComponent&#45;&gt;ManageUsersModule</title>
<path fill="none" stroke="black" d="M255,-122.02C255,-139.37 255,-163 255,-163 255,-163 339.82,-163 339.82,-163"/>
<polygon fill="black" stroke="black" points="339.82,-166.5 349.82,-163 339.82,-159.5 339.82,-166.5"/>
</g>
<!-- NewUserComponent -->
<g id="node4" class="node">
<title>NewUserComponent</title>
<polygon fill="#ffffb3" stroke="black" points="158.19,-122 23.81,-122 23.81,-86 158.19,-86 158.19,-122"/>
<text text-anchor="middle" x="91" y="-99.8" font-family="Times,serif" font-size="14.00">NewUserComponent</text>
</g>
<!-- NewUserComponent&#45;&gt;ManageUsersModule -->
<g id="edge4" class="edge">
<title>NewUserComponent&#45;&gt;ManageUsersModule</title>
<path fill="none" stroke="black" d="M91,-122.28C91,-143.32 91,-175 91,-175 91,-175 339.85,-175 339.85,-175"/>
<polygon fill="black" stroke="black" points="339.85,-178.5 349.85,-175 339.85,-171.5 339.85,-178.5"/>
</g>
<!-- ManageUsersRoutingModule -->
<g id="node6" class="node">
<title>ManageUsersRoutingModule</title>
<polygon fill="#8dd3c7" stroke="black" points="849.63,-122 846.63,-126 825.63,-126 822.63,-122 668.37,-122 668.37,-86 849.63,-86 849.63,-122"/>
<text text-anchor="middle" x="759" y="-99.8" font-family="Times,serif" font-size="14.00">ManageUsersRoutingModule</text>
</g>
<!-- ManageUsersRoutingModule&#45;&gt;ManageUsersModule -->
<g id="edge5" class="edge">
<title>ManageUsersRoutingModule&#45;&gt;ManageUsersModule</title>
<path fill="none" stroke="black" d="M759,-122.28C759,-143.32 759,-175 759,-175 759,-175 496.19,-175 496.19,-175"/>
<polygon fill="black" stroke="black" points="496.19,-171.5 486.19,-175 496.19,-178.5 496.19,-171.5"/>
</g>
</g>
</svg>
