<?xml version="1.0" encoding="UTF-8" standalone="no"?>
<!DOCTYPE svg PUBLIC "-//W3C//DTD SVG 1.1//EN"
 "http://www.w3.org/Graphics/SVG/1.1/DTD/svg11.dtd">
<!-- Generated by graphviz version 2.47.0 (20210316.0004)
 -->
<!-- Title: dependencies Pages: 1 -->
<svg width="2224pt" height="211pt"
 viewBox="0.00 0.00 2224.00 211.00" xmlns="http://www.w3.org/2000/svg" xmlns:xlink="http://www.w3.org/1999/xlink">
<g id="graph0" class="graph" transform="scale(1 1) rotate(0) translate(4 207)">
<title>dependencies</title>
<polygon fill="white" stroke="transparent" points="-4,4 -4,-207 2220,-207 2220,4 -4,4"/>
<text text-anchor="start" x="1087.01" y="-42.4" font-family="Times-12" font-weight="bold" font-size="14.00">Legend</text>
<polygon fill="#ffffb3" stroke="transparent" points="874,-10 874,-30 894,-30 894,-10 874,-10"/>
<text text-anchor="start" x="897.63" y="-15.4" font-family="Times-12" font-size="14.00"> &#160;Declarations</text>
<polygon fill="#8dd3c7" stroke="transparent" points="987,-10 987,-30 1007,-30 1007,-10 987,-10"/>
<text text-anchor="start" x="1010.73" y="-15.4" font-family="Times-12" font-size="14.00"> &#160;Module</text>
<polygon fill="#80b1d3" stroke="transparent" points="1073,-10 1073,-30 1093,-30 1093,-10 1073,-10"/>
<text text-anchor="start" x="1096.78" y="-15.4" font-family="Times-12" font-size="14.00"> &#160;Bootstrap</text>
<polygon fill="#fdb462" stroke="transparent" points="1170,-10 1170,-30 1190,-30 1190,-10 1170,-10"/>
<text text-anchor="start" x="1193.67" y="-15.4" font-family="Times-12" font-size="14.00"> &#160;Providers</text>
<polygon fill="#fb8072" stroke="transparent" points="1266,-10 1266,-30 1286,-30 1286,-10 1266,-10"/>
<text text-anchor="start" x="1289.73" y="-15.4" font-family="Times-12" font-size="14.00"> &#160;Exports</text>
<g id="clust1" class="cluster">
<title>cluster_PatientModule</title>
<polygon fill="none" stroke="black" stroke-dasharray="1,5" points="8,-70 8,-195 2208,-195 2208,-70 8,-70"/>
</g>
<g id="clust14" class="cluster">
<title>cluster_PatientModule_imports</title>
<polygon fill="none" stroke="black" points="2040,-78 2040,-130 2200,-130 2200,-78 2040,-78"/>
</g>
<g id="clust2" class="cluster">
<title>cluster_PatientModule_declarations</title>
<polygon fill="none" stroke="black" points="16,-78 16,-130 2032,-130 2032,-78 16,-78"/>
</g>
<!-- BooleanToYesNoPipe -->
<g id="node1" class="node">
<title>BooleanToYesNoPipe</title>
<polygon fill="#ffffb3" stroke="black" points="2023.97,-122 1882.03,-122 1882.03,-86 2023.97,-86 2023.97,-122"/>
<text text-anchor="middle" x="1953" y="-99.8" font-family="Times,serif" font-size="14.00">BooleanToYesNoPipe</text>
</g>
<!-- PatientModule -->
<g id="node12" class="node">
<title>PatientModule</title>
<polygon fill="#8dd3c7" stroke="black" points="1186.43,-187 1183.43,-191 1162.43,-191 1159.43,-187 1087.57,-187 1087.57,-151 1186.43,-151 1186.43,-187"/>
<text text-anchor="middle" x="1137" y="-164.8" font-family="Times,serif" font-size="14.00">PatientModule</text>
</g>
<!-- BooleanToYesNoPipe&#45;&gt;PatientModule -->
<g id="edge1" class="edge">
<title>BooleanToYesNoPipe&#45;&gt;PatientModule</title>
<path fill="none" stroke="black" d="M1953,-122.28C1953,-143.32 1953,-175 1953,-175 1953,-175 1196.51,-175 1196.51,-175"/>
<polygon fill="black" stroke="black" points="1196.51,-171.5 1186.51,-175 1196.51,-178.5 1196.51,-171.5"/>
</g>
<!-- DetailPatientComponent -->
<g id="node2" class="node">
<title>DetailPatientComponent</title>
<polygon fill="#ffffb3" stroke="black" points="1864.42,-122 1709.58,-122 1709.58,-86 1864.42,-86 1864.42,-122"/>
<text text-anchor="middle" x="1787" y="-99.8" font-family="Times,serif" font-size="14.00">DetailPatientComponent</text>
</g>
<!-- DetailPatientComponent&#45;&gt;PatientModule -->
<g id="edge2" class="edge">
<title>DetailPatientComponent&#45;&gt;PatientModule</title>
<path fill="none" stroke="black" d="M1787,-122.11C1787,-141.34 1787,-169 1787,-169 1787,-169 1196.39,-169 1196.39,-169"/>
<polygon fill="black" stroke="black" points="1196.39,-165.5 1186.39,-169 1196.39,-172.5 1196.39,-165.5"/>
</g>
<!-- EditPatientComponent -->
<g id="node3" class="node">
<title>EditPatientComponent</title>
<polygon fill="#ffffb3" stroke="black" points="1691.55,-122 1548.45,-122 1548.45,-86 1691.55,-86 1691.55,-122"/>
<text text-anchor="middle" x="1620" y="-99.8" font-family="Times,serif" font-size="14.00">EditPatientComponent</text>
</g>
<!-- EditPatientComponent&#45;&gt;PatientModule -->
<g id="edge3" class="edge">
<title>EditPatientComponent&#45;&gt;PatientModule</title>
<path fill="none" stroke="black" d="M1620,-122.02C1620,-139.37 1620,-163 1620,-163 1620,-163 1196.42,-163 1196.42,-163"/>
<polygon fill="black" stroke="black" points="1196.42,-159.5 1186.42,-163 1196.42,-166.5 1196.42,-159.5"/>
</g>
<!-- FallDetectorPatientComponent -->
<g id="node4" class="node">
<title>FallDetectorPatientComponent</title>
<polygon fill="#ffffb3" stroke="black" points="1530.19,-122 1339.81,-122 1339.81,-86 1530.19,-86 1530.19,-122"/>
<text text-anchor="middle" x="1435" y="-99.8" font-family="Times,serif" font-size="14.00">FallDetectorPatientComponent</text>
</g>
<!-- FallDetectorPatientComponent&#45;&gt;PatientModule -->
<g id="edge4" class="edge">
<title>FallDetectorPatientComponent&#45;&gt;PatientModule</title>
<path fill="none" stroke="black" d="M1435,-122.24C1435,-137.57 1435,-157 1435,-157 1435,-157 1196.54,-157 1196.54,-157"/>
<polygon fill="black" stroke="black" points="1196.54,-153.5 1186.54,-157 1196.54,-160.5 1196.54,-153.5"/>
</g>
<!-- HeartRatePatientComponent -->
<g id="node5" class="node">
<title>HeartRatePatientComponent</title>
<polygon fill="#ffffb3" stroke="black" points="1321.46,-122 1144.54,-122 1144.54,-86 1321.46,-86 1321.46,-122"/>
<text text-anchor="middle" x="1233" y="-99.8" font-family="Times,serif" font-size="14.00">HeartRatePatientComponent</text>
</g>
<!-- HeartRatePatientComponent&#45;&gt;PatientModule -->
<g id="edge5" class="edge">
<title>HeartRatePatientComponent&#45;&gt;PatientModule</title>
<path fill="none" stroke="black" d="M1165.37,-122.11C1165.37,-122.11 1165.37,-140.99 1165.37,-140.99"/>
<polygon fill="black" stroke="black" points="1161.87,-140.99 1165.37,-150.99 1168.87,-140.99 1161.87,-140.99"/>
</g>
<!-- LocationPatientComponent -->
<g id="node6" class="node">
<title>LocationPatientComponent</title>
<polygon fill="#ffffb3" stroke="black" points="1126.98,-122 957.02,-122 957.02,-86 1126.98,-86 1126.98,-122"/>
<text text-anchor="middle" x="1042" y="-99.8" font-family="Times,serif" font-size="14.00">LocationPatientComponent</text>
</g>
<!-- LocationPatientComponent&#45;&gt;PatientModule -->
<g id="edge6" class="edge">
<title>LocationPatientComponent&#45;&gt;PatientModule</title>
<path fill="none" stroke="black" d="M1107.39,-122.11C1107.39,-122.11 1107.39,-140.99 1107.39,-140.99"/>
<polygon fill="black" stroke="black" points="1103.89,-140.99 1107.39,-150.99 1110.89,-140.99 1103.89,-140.99"/>
</g>
<!-- NewPatientComponent -->
<g id="node7" class="node">
<title>NewPatientComponent</title>
<polygon fill="#ffffb3" stroke="black" points="939.14,-122 792.86,-122 792.86,-86 939.14,-86 939.14,-122"/>
<text text-anchor="middle" x="866" y="-99.8" font-family="Times,serif" font-size="14.00">NewPatientComponent</text>
</g>
<!-- NewPatientComponent&#45;&gt;PatientModule -->
<g id="edge7" class="edge">
<title>NewPatientComponent&#45;&gt;PatientModule</title>
<path fill="none" stroke="black" d="M866,-122.24C866,-137.57 866,-157 866,-157 866,-157 1077.61,-157 1077.61,-157"/>
<polygon fill="black" stroke="black" points="1077.61,-160.5 1087.61,-157 1077.61,-153.5 1077.61,-160.5"/>
</g>
<!-- OxygenSaturationPatientComponent -->
<g id="node8" class="node">
<title>OxygenSaturationPatientComponent</title>
<polygon fill="#ffffb3" stroke="black" points="775.08,-122 552.92,-122 552.92,-86 775.08,-86 775.08,-122"/>
<text text-anchor="middle" x="664" y="-99.8" font-family="Times,serif" font-size="14.00">OxygenSaturationPatientComponent</text>
</g>
<!-- OxygenSaturationPatientComponent&#45;&gt;PatientModule -->
<g id="edge8" class="edge">
<title>OxygenSaturationPatientComponent&#45;&gt;PatientModule</title>
<path fill="none" stroke="black" d="M664,-122.02C664,-139.37 664,-163 664,-163 664,-163 1077.72,-163 1077.72,-163"/>
<polygon fill="black" stroke="black" points="1077.72,-166.5 1087.72,-163 1077.72,-159.5 1077.72,-166.5"/>
</g>
<!-- PatientComponent -->
<g id="node9" class="node">
<title>PatientComponent</title>
<polygon fill="#ffffb3" stroke="black" points="535.22,-122 414.78,-122 414.78,-86 535.22,-86 535.22,-122"/>
<text text-anchor="middle" x="475" y="-99.8" font-family="Times,serif" font-size="14.00">PatientComponent</text>
</g>
<!-- PatientComponent&#45;&gt;PatientModule -->
<g id="edge9" class="edge">
<title>PatientComponent&#45;&gt;PatientModule</title>
<path fill="none" stroke="black" d="M475,-122.11C475,-141.34 475,-169 475,-169 475,-169 1077.78,-169 1077.78,-169"/>
<polygon fill="black" stroke="black" points="1077.78,-172.5 1087.78,-169 1077.78,-165.5 1077.78,-172.5"/>
</g>
<!-- ReviewPatientComponent -->
<g id="node10" class="node">
<title>ReviewPatientComponent</title>
<polygon fill="#ffffb3" stroke="black" points="396.48,-122 233.52,-122 233.52,-86 396.48,-86 396.48,-122"/>
<text text-anchor="middle" x="315" y="-99.8" font-family="Times,serif" font-size="14.00">ReviewPatientComponent</text>
</g>
<!-- ReviewPatientComponent&#45;&gt;PatientModule -->
<g id="edge10" class="edge">
<title>ReviewPatientComponent&#45;&gt;PatientModule</title>
<path fill="none" stroke="black" d="M315,-122.28C315,-143.32 315,-175 315,-175 315,-175 1077.74,-175 1077.74,-175"/>
<polygon fill="black" stroke="black" points="1077.74,-178.5 1087.74,-175 1077.74,-171.5 1077.74,-178.5"/>
</g>
<!-- TemperaturePatientComponent -->
<g id="node11" class="node">
<title>TemperaturePatientComponent</title>
<polygon fill="#ffffb3" stroke="black" points="215.73,-122 24.27,-122 24.27,-86 215.73,-86 215.73,-122"/>
<text text-anchor="middle" x="120" y="-99.8" font-family="Times,serif" font-size="14.00">TemperaturePatientComponent</text>
</g>
<!-- TemperaturePatientComponent&#45;&gt;PatientModule -->
<g id="edge11" class="edge">
<title>TemperaturePatientComponent&#45;&gt;PatientModule</title>
<path fill="none" stroke="black" d="M120,-122.09C120,-145.13 120,-182 120,-182 120,-182 1077.6,-182 1077.6,-182"/>
<polygon fill="black" stroke="black" points="1077.6,-185.5 1087.6,-182 1077.6,-178.5 1077.6,-185.5"/>
</g>
<!-- PatientRoutingModule -->
<g id="node13" class="node">
<title>PatientRoutingModule</title>
<polygon fill="#8dd3c7" stroke="black" points="2191.55,-122 2188.55,-126 2167.55,-126 2164.55,-122 2048.45,-122 2048.45,-86 2191.55,-86 2191.55,-122"/>
<text text-anchor="middle" x="2120" y="-99.8" font-family="Times,serif" font-size="14.00">PatientRoutingModule</text>
</g>
<!-- PatientRoutingModule&#45;&gt;PatientModule -->
<g id="edge12" class="edge">
<title>PatientRoutingModule&#45;&gt;PatientModule</title>
<path fill="none" stroke="black" d="M2120,-122.09C2120,-145.13 2120,-182 2120,-182 2120,-182 1196.42,-182 1196.42,-182"/>
<polygon fill="black" stroke="black" points="1196.42,-178.5 1186.42,-182 1196.42,-185.5 1196.42,-178.5"/>
</g>
</g>
</svg>
