<?xml version="1.0" encoding="UTF-8" standalone="no"?>
<!DOCTYPE svg PUBLIC "-//W3C//DTD SVG 1.1//EN"
 "http://www.w3.org/Graphics/SVG/1.1/DTD/svg11.dtd">
<!-- Generated by graphviz version 2.47.0 (20210316.0004)
 -->
<!-- Title: dependencies Pages: 1 -->
<svg width="2422pt" height="284pt"
 viewBox="0.00 0.00 2422.00 284.00" xmlns="http://www.w3.org/2000/svg" xmlns:xlink="http://www.w3.org/1999/xlink">
<g id="graph0" class="graph" transform="scale(1 1) rotate(0) translate(4 280)">
<title>dependencies</title>
<polygon fill="white" stroke="transparent" points="-4,4 -4,-280 2418,-280 2418,4 -4,4"/>
<text text-anchor="start" x="1186.01" y="-42.4" font-family="Times-12" font-weight="bold" font-size="14.00">Legend</text>
<polygon fill="#ffffb3" stroke="transparent" points="973,-10 973,-30 993,-30 993,-10 973,-10"/>
<text text-anchor="start" x="996.63" y="-15.4" font-family="Times-12" font-size="14.00"> &#160;Declarations</text>
<polygon fill="#8dd3c7" stroke="transparent" points="1086,-10 1086,-30 1106,-30 1106,-10 1086,-10"/>
<text text-anchor="start" x="1109.73" y="-15.4" font-family="Times-12" font-size="14.00"> &#160;Module</text>
<polygon fill="#80b1d3" stroke="transparent" points="1172,-10 1172,-30 1192,-30 1192,-10 1172,-10"/>
<text text-anchor="start" x="1195.78" y="-15.4" font-family="Times-12" font-size="14.00"> &#160;Bootstrap</text>
<polygon fill="#fdb462" stroke="transparent" points="1269,-10 1269,-30 1289,-30 1289,-10 1269,-10"/>
<text text-anchor="start" x="1292.67" y="-15.4" font-family="Times-12" font-size="14.00"> &#160;Providers</text>
<polygon fill="#fb8072" stroke="transparent" points="1365,-10 1365,-30 1385,-30 1385,-10 1365,-10"/>
<text text-anchor="start" x="1388.73" y="-15.4" font-family="Times-12" font-size="14.00"> &#160;Exports</text>
<g id="clust1" class="cluster">
<title>cluster_AppModule</title>
<polygon fill="none" stroke="black" stroke-dasharray="1,5" points="8,-70 8,-268 2406,-268 2406,-70 8,-70"/>
</g>
<g id="clust2" class="cluster">
<title>cluster_AppModule_declarations</title>
<polygon fill="none" stroke="black" points="474,-78 474,-130 2398,-130 2398,-78 474,-78"/>
</g>
<g id="clust19" class="cluster">
<title>cluster_AppModule_providers</title>
<polygon fill="none" stroke="black" points="168,-78 168,-130 466,-130 466,-78 168,-78"/>
</g>
<g id="clust16" class="cluster">
<title>cluster_AppModule_imports</title>
<polygon fill="none" stroke="black" points="16,-78 16,-130 160,-130 160,-78 16,-78"/>
</g>
<g id="clust18" class="cluster">
<title>cluster_AppModule_bootstrap</title>
<polygon fill="none" stroke="black" points="1237,-208 1237,-260 1361,-260 1361,-208 1237,-208"/>
</g>
<!-- AboutComponent -->
<g id="node1" class="node">
<title>AboutComponent</title>
<polygon fill="#ffffb3" stroke="black" points="2390.33,-122 2273.67,-122 2273.67,-86 2390.33,-86 2390.33,-122"/>
<text text-anchor="middle" x="2332" y="-99.8" font-family="Times,serif" font-size="14.00">AboutComponent</text>
</g>
<!-- AppModule -->
<g id="node14" class="node">
<title>AppModule</title>
<polygon fill="#8dd3c7" stroke="black" points="1340.66,-187 1337.66,-191 1316.66,-191 1313.66,-187 1257.34,-187 1257.34,-151 1340.66,-151 1340.66,-187"/>
<text text-anchor="middle" x="1299" y="-164.8" font-family="Times,serif" font-size="14.00">AppModule</text>
</g>
<!-- AboutComponent&#45;&gt;AppModule -->
<g id="edge1" class="edge">
<title>AboutComponent&#45;&gt;AppModule</title>
<path fill="none" stroke="black" d="M2332,-122.32C2332,-145.66 2332,-183 2332,-183 2332,-183 1350.77,-183 1350.77,-183"/>
<polygon fill="black" stroke="black" points="1350.77,-179.5 1340.77,-183 1350.77,-186.5 1350.77,-179.5"/>
</g>
<!-- AppComponent -->
<g id="node2" class="node">
<title>AppComponent</title>
<polygon fill="#ffffb3" stroke="black" points="2255.94,-122 2150.06,-122 2150.06,-86 2255.94,-86 2255.94,-122"/>
<text text-anchor="middle" x="2203" y="-99.8" font-family="Times,serif" font-size="14.00">AppComponent</text>
</g>
<!-- AppComponent&#45;&gt;AppModule -->
<g id="edge2" class="edge">
<title>AppComponent&#45;&gt;AppModule</title>
<path fill="none" stroke="black" d="M2203,-122.29C2203,-144.21 2203,-178 2203,-178 2203,-178 1350.79,-178 1350.79,-178"/>
<polygon fill="black" stroke="black" points="1350.79,-174.5 1340.79,-178 1350.79,-181.5 1350.79,-174.5"/>
</g>
<!-- FooterComponent -->
<g id="node3" class="node">
<title>FooterComponent</title>
<polygon fill="#ffffb3" stroke="black" points="2131.88,-122 2014.12,-122 2014.12,-86 2131.88,-86 2131.88,-122"/>
<text text-anchor="middle" x="2073" y="-99.8" font-family="Times,serif" font-size="14.00">FooterComponent</text>
</g>
<!-- FooterComponent&#45;&gt;AppModule -->
<g id="edge3" class="edge">
<title>FooterComponent&#45;&gt;AppModule</title>
<path fill="none" stroke="black" d="M2073,-122.03C2073,-142.77 2073,-174 2073,-174 2073,-174 1350.89,-174 1350.89,-174"/>
<polygon fill="black" stroke="black" points="1350.89,-170.5 1340.89,-174 1350.89,-177.5 1350.89,-170.5"/>
</g>
<!-- HeaderComponent -->
<g id="node4" class="node">
<title>HeaderComponent</title>
<polygon fill="#ffffb3" stroke="black" points="1995.74,-122 1874.26,-122 1874.26,-86 1995.74,-86 1995.74,-122"/>
<text text-anchor="middle" x="1935" y="-99.8" font-family="Times,serif" font-size="14.00">HeaderComponent</text>
</g>
<!-- HeaderComponent&#45;&gt;AppModule -->
<g id="edge4" class="edge">
<title>HeaderComponent&#45;&gt;AppModule</title>
<path fill="none" stroke="black" d="M1935,-122.11C1935,-141.34 1935,-169 1935,-169 1935,-169 1350.73,-169 1350.73,-169"/>
<polygon fill="black" stroke="black" points="1350.73,-165.5 1340.73,-169 1350.73,-172.5 1350.73,-165.5"/>
</g>
<!-- HomeComponent -->
<g id="node5" class="node">
<title>HomeComponent</title>
<polygon fill="#ffffb3" stroke="black" points="1855.55,-122 1740.45,-122 1740.45,-86 1855.55,-86 1855.55,-122"/>
<text text-anchor="middle" x="1798" y="-99.8" font-family="Times,serif" font-size="14.00">HomeComponent</text>
</g>
<!-- HomeComponent&#45;&gt;AppModule -->
<g id="edge5" class="edge">
<title>HomeComponent&#45;&gt;AppModule</title>
<path fill="none" stroke="black" d="M1798,-122.3C1798,-140.27 1798,-165 1798,-165 1798,-165 1350.69,-165 1350.69,-165"/>
<polygon fill="black" stroke="black" points="1350.69,-161.5 1340.69,-165 1350.69,-168.5 1350.69,-161.5"/>
</g>
<!-- LoginComponent -->
<g id="node6" class="node">
<title>LoginComponent</title>
<polygon fill="#ffffb3" stroke="black" points="1722.28,-122 1607.72,-122 1607.72,-86 1722.28,-86 1722.28,-122"/>
<text text-anchor="middle" x="1665" y="-99.8" font-family="Times,serif" font-size="14.00">LoginComponent</text>
</g>
<!-- LoginComponent&#45;&gt;AppModule -->
<g id="edge6" class="edge">
<title>LoginComponent&#45;&gt;AppModule</title>
<path fill="none" stroke="black" d="M1665,-122.03C1665,-138.4 1665,-160 1665,-160 1665,-160 1350.98,-160 1350.98,-160"/>
<polygon fill="black" stroke="black" points="1350.98,-156.5 1340.98,-160 1350.98,-163.5 1350.98,-156.5"/>
</g>
<!-- MantainanceComponent -->
<g id="node7" class="node">
<title>MantainanceComponent</title>
<polygon fill="#ffffb3" stroke="black" points="1589.63,-122 1436.37,-122 1436.37,-86 1589.63,-86 1589.63,-122"/>
<text text-anchor="middle" x="1513" y="-99.8" font-family="Times,serif" font-size="14.00">MantainanceComponent</text>
</g>
<!-- MantainanceComponent&#45;&gt;AppModule -->
<g id="edge7" class="edge">
<title>MantainanceComponent&#45;&gt;AppModule</title>
<path fill="none" stroke="black" d="M1513,-122.19C1513,-137.18 1513,-156 1513,-156 1513,-156 1350.77,-156 1350.77,-156"/>
<polygon fill="black" stroke="black" points="1350.77,-152.5 1340.77,-156 1350.77,-159.5 1350.77,-152.5"/>
</g>
<!-- MapComponent -->
<g id="node8" class="node">
<title>MapComponent</title>
<polygon fill="#ffffb3" stroke="black" points="1418.49,-122 1311.51,-122 1311.51,-86 1418.49,-86 1418.49,-122"/>
<text text-anchor="middle" x="1365" y="-99.8" font-family="Times,serif" font-size="14.00">MapComponent</text>
</g>
<!-- MapComponent&#45;&gt;AppModule -->
<g id="edge8" class="edge">
<title>MapComponent&#45;&gt;AppModule</title>
<path fill="none" stroke="black" d="M1326.17,-122.11C1326.17,-122.11 1326.17,-140.99 1326.17,-140.99"/>
<polygon fill="black" stroke="black" points="1322.67,-140.99 1326.17,-150.99 1329.67,-140.99 1322.67,-140.99"/>
</g>
<!-- ProfileComponent -->
<g id="node9" class="node">
<title>ProfileComponent</title>
<polygon fill="#ffffb3" stroke="black" points="1293.93,-122 1174.07,-122 1174.07,-86 1293.93,-86 1293.93,-122"/>
<text text-anchor="middle" x="1234" y="-99.8" font-family="Times,serif" font-size="14.00">ProfileComponent</text>
</g>
<!-- ProfileComponent&#45;&gt;AppModule -->
<g id="edge9" class="edge">
<title>ProfileComponent&#45;&gt;AppModule</title>
<path fill="none" stroke="black" d="M1275.44,-122.11C1275.44,-122.11 1275.44,-140.99 1275.44,-140.99"/>
<polygon fill="black" stroke="black" points="1271.94,-140.99 1275.44,-150.99 1278.94,-140.99 1271.94,-140.99"/>
</g>
<!-- ScrollToTopComponent -->
<g id="node10" class="node">
<title>ScrollToTopComponent</title>
<polygon fill="#ffffb3" stroke="black" points="1156.38,-122 1003.62,-122 1003.62,-86 1156.38,-86 1156.38,-122"/>
<text text-anchor="middle" x="1080" y="-99.8" font-family="Times,serif" font-size="14.00">ScrollToTopComponent</text>
</g>
<!-- ScrollToTopComponent&#45;&gt;AppModule -->
<g id="edge10" class="edge">
<title>ScrollToTopComponent&#45;&gt;AppModule</title>
<path fill="none" stroke="black" d="M1080,-122.19C1080,-137.18 1080,-156 1080,-156 1080,-156 1247.29,-156 1247.29,-156"/>
<polygon fill="black" stroke="black" points="1247.29,-159.5 1257.29,-156 1247.29,-152.5 1247.29,-159.5"/>
</g>
<!-- SidebarComponent -->
<g id="node11" class="node">
<title>SidebarComponent</title>
<polygon fill="#ffffb3" stroke="black" points="986.1,-122 861.9,-122 861.9,-86 986.1,-86 986.1,-122"/>
<text text-anchor="middle" x="924" y="-99.8" font-family="Times,serif" font-size="14.00">SidebarComponent</text>
</g>
<!-- SidebarComponent&#45;&gt;AppModule -->
<g id="edge11" class="edge">
<title>SidebarComponent&#45;&gt;AppModule</title>
<path fill="none" stroke="black" d="M924,-122.03C924,-138.4 924,-160 924,-160 924,-160 1247.07,-160 1247.07,-160"/>
<polygon fill="black" stroke="black" points="1247.07,-163.5 1257.07,-160 1247.07,-156.5 1247.07,-163.5"/>
</g>
<!-- UserDetailComponent -->
<g id="node12" class="node">
<title>UserDetailComponent</title>
<polygon fill="#ffffb3" stroke="black" points="843.97,-122 702.03,-122 702.03,-86 843.97,-86 843.97,-122"/>
<text text-anchor="middle" x="773" y="-99.8" font-family="Times,serif" font-size="14.00">UserDetailComponent</text>
</g>
<!-- UserDetailComponent&#45;&gt;AppModule -->
<g id="edge12" class="edge">
<title>UserDetailComponent&#45;&gt;AppModule</title>
<path fill="none" stroke="black" d="M773,-122.3C773,-140.27 773,-165 773,-165 773,-165 1247.29,-165 1247.29,-165"/>
<polygon fill="black" stroke="black" points="1247.29,-168.5 1257.29,-165 1247.29,-161.5 1247.29,-168.5"/>
</g>
<!-- UserUpdatePasswordComponent -->
<g id="node13" class="node">
<title>UserUpdatePasswordComponent</title>
<polygon fill="#ffffb3" stroke="black" points="683.84,-122 482.16,-122 482.16,-86 683.84,-86 683.84,-122"/>
<text text-anchor="middle" x="583" y="-99.8" font-family="Times,serif" font-size="14.00">UserUpdatePasswordComponent</text>
</g>
<!-- UserUpdatePasswordComponent&#45;&gt;AppModule -->
<g id="edge13" class="edge">
<title>UserUpdatePasswordComponent&#45;&gt;AppModule</title>
<path fill="none" stroke="black" d="M583,-122.11C583,-141.34 583,-169 583,-169 583,-169 1247.15,-169 1247.15,-169"/>
<polygon fill="black" stroke="black" points="1247.15,-172.5 1257.15,-169 1247.15,-165.5 1247.15,-172.5"/>
</g>
<!-- AppComponent  -->
<g id="node16" class="node">
<title>AppComponent </title>
<polygon fill="#80b1d3" stroke="black" points="1353.44,-252 1244.56,-252 1244.56,-216 1353.44,-216 1353.44,-252"/>
<text text-anchor="middle" x="1299" y="-229.8" font-family="Times,serif" font-size="14.00">AppComponent </text>
</g>
<!-- AppModule&#45;&gt;AppComponent  -->
<g id="edge15" class="edge">
<title>AppModule&#45;&gt;AppComponent </title>
<path fill="none" stroke="black" stroke-dasharray="1,5" d="M1299,-187.11C1299,-187.11 1299,-205.99 1299,-205.99"/>
<polygon fill="black" stroke="black" points="1295.5,-205.99 1299,-215.99 1302.5,-205.99 1295.5,-205.99"/>
</g>
<!-- AppRoutingModule -->
<g id="node15" class="node">
<title>AppRoutingModule</title>
<polygon fill="#8dd3c7" stroke="black" points="152.27,-122 149.27,-126 128.27,-126 125.27,-122 23.73,-122 23.73,-86 152.27,-86 152.27,-122"/>
<text text-anchor="middle" x="88" y="-99.8" font-family="Times,serif" font-size="14.00">AppRoutingModule</text>
</g>
<!-- AppRoutingModule&#45;&gt;AppModule -->
<g id="edge14" class="edge">
<title>AppRoutingModule&#45;&gt;AppModule</title>
<path fill="none" stroke="black" d="M88,-122.32C88,-145.66 88,-183 88,-183 88,-183 1247.31,-183 1247.31,-183"/>
<polygon fill="black" stroke="black" points="1247.31,-186.5 1257.31,-183 1247.31,-179.5 1247.31,-186.5"/>
</g>
<!-- AuthInterceptor -->
<g id="node17" class="node">
<title>AuthInterceptor</title>
<ellipse fill="#fdb462" stroke="black" cx="385" cy="-104" rx="72.91" ry="18"/>
<text text-anchor="middle" x="385" y="-99.8" font-family="Times,serif" font-size="14.00">AuthInterceptor</text>
</g>
<!-- AuthInterceptor&#45;&gt;AppModule -->
<g id="edge16" class="edge">
<title>AuthInterceptor&#45;&gt;AppModule</title>
<path fill="none" stroke="black" d="M385,-122.03C385,-142.77 385,-174 385,-174 385,-174 1247.05,-174 1247.05,-174"/>
<polygon fill="black" stroke="black" points="1247.05,-177.5 1257.05,-174 1247.05,-170.5 1247.05,-177.5"/>
</g>
<!-- AuthService -->
<g id="node18" class="node">
<title>AuthService</title>
<ellipse fill="#fdb462" stroke="black" cx="235" cy="-104" rx="59.11" ry="18"/>
<text text-anchor="middle" x="235" y="-99.8" font-family="Times,serif" font-size="14.00">AuthService</text>
</g>
<!-- AuthService&#45;&gt;AppModule -->
<g id="edge17" class="edge">
<title>AuthService&#45;&gt;AppModule</title>
<path fill="none" stroke="black" d="M235,-122.29C235,-144.21 235,-178 235,-178 235,-178 1247.29,-178 1247.29,-178"/>
<polygon fill="black" stroke="black" points="1247.29,-181.5 1257.29,-178 1247.29,-174.5 1247.29,-181.5"/>
</g>
</g>
</svg>
