<?xml version="1.0" encoding="UTF-8" standalone="no"?>
<!DOCTYPE svg PUBLIC "-//W3C//DTD SVG 1.1//EN"
 "http://www.w3.org/Graphics/SVG/1.1/DTD/svg11.dtd">
<!-- Generated by graphviz version 2.47.0 (20210316.0004)
 -->
<!-- Title: dependencies Pages: 1 -->
<svg width="882pt" height="211pt"
 viewBox="0.00 0.00 882.00 211.00" xmlns="http://www.w3.org/2000/svg" xmlns:xlink="http://www.w3.org/1999/xlink">
<g id="graph0" class="graph" transform="scale(1 1) rotate(0) translate(4 207)">
<title>dependencies</title>
<polygon fill="white" stroke="transparent" points="-4,4 -4,-207 878,-207 878,4 -4,4"/>
<text text-anchor="start" x="416.01" y="-42.4" font-family="Times-12" font-weight="bold" font-size="14.00">Legend</text>
<polygon fill="#ffffb3" stroke="transparent" points="203,-10 203,-30 223,-30 223,-10 203,-10"/>
<text text-anchor="start" x="226.63" y="-15.4" font-family="Times-12" font-size="14.00"> &#160;Declarations</text>
<polygon fill="#8dd3c7" stroke="transparent" points="316,-10 316,-30 336,-30 336,-10 316,-10"/>
<text text-anchor="start" x="339.73" y="-15.4" font-family="Times-12" font-size="14.00"> &#160;Module</text>
<polygon fill="#80b1d3" stroke="transparent" points="402,-10 402,-30 422,-30 422,-10 402,-10"/>
<text text-anchor="start" x="425.78" y="-15.4" font-family="Times-12" font-size="14.00"> &#160;Bootstrap</text>
<polygon fill="#fdb462" stroke="transparent" points="499,-10 499,-30 519,-30 519,-10 499,-10"/>
<text text-anchor="start" x="522.67" y="-15.4" font-family="Times-12" font-size="14.00"> &#160;Providers</text>
<polygon fill="#fb8072" stroke="transparent" points="595,-10 595,-30 615,-30 615,-10 595,-10"/>
<text text-anchor="start" x="618.73" y="-15.4" font-family="Times-12" font-size="14.00"> &#160;Exports</text>
<g id="clust1" class="cluster">
<title>cluster_ManageRolesModule</title>
<polygon fill="none" stroke="black" stroke-dasharray="1,5" points="8,-70 8,-195 866,-195 866,-70 8,-70"/>
</g>
<g id="clust2" class="cluster">
<title>cluster_ManageRolesModule_declarations</title>
<polygon fill="none" stroke="black" points="222,-78 222,-130 858,-130 858,-78 222,-78"/>
</g>
<g id="clust7" class="cluster">
<title>cluster_ManageRolesModule_imports</title>
<polygon fill="none" stroke="black" points="16,-78 16,-130 214,-130 214,-78 16,-78"/>
</g>
<!-- DetailRoleComponent -->
<g id="node1" class="node">
<title>DetailRoleComponent</title>
<polygon fill="#ffffb3" stroke="black" points="849.98,-122 708.02,-122 708.02,-86 849.98,-86 849.98,-122"/>
<text text-anchor="middle" x="779" y="-99.8" font-family="Times,serif" font-size="14.00">DetailRoleComponent</text>
</g>
<!-- ManageRolesModule -->
<g id="node5" class="node">
<title>ManageRolesModule</title>
<polygon fill="#8dd3c7" stroke="black" points="529.03,-187 526.03,-191 505.03,-191 502.03,-187 392.97,-187 392.97,-151 529.03,-151 529.03,-187"/>
<text text-anchor="middle" x="461" y="-164.8" font-family="Times,serif" font-size="14.00">ManageRolesModule</text>
</g>
<!-- DetailRoleComponent&#45;&gt;ManageRolesModule -->
<g id="edge1" class="edge">
<title>DetailRoleComponent&#45;&gt;ManageRolesModule</title>
<path fill="none" stroke="black" d="M779,-122.28C779,-143.32 779,-175 779,-175 779,-175 539.22,-175 539.22,-175"/>
<polygon fill="black" stroke="black" points="539.22,-171.5 529.22,-175 539.22,-178.5 539.22,-171.5"/>
</g>
<!-- EditRoleComponent -->
<g id="node2" class="node">
<title>EditRoleComponent</title>
<polygon fill="#ffffb3" stroke="black" points="689.61,-122 558.39,-122 558.39,-86 689.61,-86 689.61,-122"/>
<text text-anchor="middle" x="624" y="-99.8" font-family="Times,serif" font-size="14.00">EditRoleComponent</text>
</g>
<!-- EditRoleComponent&#45;&gt;ManageRolesModule -->
<g id="edge2" class="edge">
<title>EditRoleComponent&#45;&gt;ManageRolesModule</title>
<path fill="none" stroke="black" d="M624,-122.02C624,-139.37 624,-163 624,-163 624,-163 539.18,-163 539.18,-163"/>
<polygon fill="black" stroke="black" points="539.18,-159.5 529.18,-163 539.18,-166.5 539.18,-159.5"/>
</g>
<!-- ManageRolesComponent -->
<g id="node3" class="node">
<title>ManageRolesComponent</title>
<polygon fill="#ffffb3" stroke="black" points="540.31,-122 381.69,-122 381.69,-86 540.31,-86 540.31,-122"/>
<text text-anchor="middle" x="461" y="-99.8" font-family="Times,serif" font-size="14.00">ManageRolesComponent</text>
</g>
<!-- ManageRolesComponent&#45;&gt;ManageRolesModule -->
<g id="edge3" class="edge">
<title>ManageRolesComponent&#45;&gt;ManageRolesModule</title>
<path fill="none" stroke="black" d="M461,-122.11C461,-122.11 461,-140.99 461,-140.99"/>
<polygon fill="black" stroke="black" points="457.5,-140.99 461,-150.99 464.5,-140.99 457.5,-140.99"/>
</g>
<!-- NewRoleComponent -->
<g id="node4" class="node">
<title>NewRoleComponent</title>
<polygon fill="#ffffb3" stroke="black" points="364.2,-122 229.8,-122 229.8,-86 364.2,-86 364.2,-122"/>
<text text-anchor="middle" x="297" y="-99.8" font-family="Times,serif" font-size="14.00">NewRoleComponent</text>
</g>
<!-- NewRoleComponent&#45;&gt;ManageRolesModule -->
<g id="edge4" class="edge">
<title>NewRoleComponent&#45;&gt;ManageRolesModule</title>
<path fill="none" stroke="black" d="M297,-122.02C297,-139.37 297,-163 297,-163 297,-163 382.87,-163 382.87,-163"/>
<polygon fill="black" stroke="black" points="382.87,-166.5 392.87,-163 382.87,-159.5 382.87,-166.5"/>
</g>
<!-- ManageRolesRoutingModule -->
<g id="node6" class="node">
<title>ManageRolesRoutingModule</title>
<polygon fill="#8dd3c7" stroke="black" points="205.64,-122 202.64,-126 181.64,-126 178.64,-122 24.36,-122 24.36,-86 205.64,-86 205.64,-122"/>
<text text-anchor="middle" x="115" y="-99.8" font-family="Times,serif" font-size="14.00">ManageRolesRoutingModule</text>
</g>
<!-- ManageRolesRoutingModule&#45;&gt;ManageRolesModule -->
<g id="edge5" class="edge">
<title>ManageRolesRoutingModule&#45;&gt;ManageRolesModule</title>
<path fill="none" stroke="black" d="M115,-122.28C115,-143.32 115,-175 115,-175 115,-175 382.64,-175 382.64,-175"/>
<polygon fill="black" stroke="black" points="382.64,-178.5 392.64,-175 382.64,-171.5 382.64,-178.5"/>
</g>
</g>
</svg>
