<?xml version="1.0" encoding="UTF-8" standalone="no"?>
<!DOCTYPE svg PUBLIC "-//W3C//DTD SVG 1.1//EN"
 "http://www.w3.org/Graphics/SVG/1.1/DTD/svg11.dtd">
<!-- Generated by graphviz version 2.47.0 (20210316.0004)
 -->
<!-- Title: dependencies Pages: 1 -->
<svg width="504pt" height="211pt"
 viewBox="0.00 0.00 504.00 211.00" xmlns="http://www.w3.org/2000/svg" xmlns:xlink="http://www.w3.org/1999/xlink">
<g id="graph0" class="graph" transform="scale(1 1) rotate(0) translate(4 207)">
<title>dependencies</title>
<polygon fill="white" stroke="transparent" points="-4,4 -4,-207 500,-207 500,4 -4,4"/>
<text text-anchor="start" x="227.01" y="-42.4" font-family="Times-12" font-weight="bold" font-size="14.00">Legend</text>
<polygon fill="#ffffb3" stroke="transparent" points="14,-10 14,-30 34,-30 34,-10 14,-10"/>
<text text-anchor="start" x="37.63" y="-15.4" font-family="Times-12" font-size="14.00"> &#160;Declarations</text>
<polygon fill="#8dd3c7" stroke="transparent" points="127,-10 127,-30 147,-30 147,-10 127,-10"/>
<text text-anchor="start" x="150.73" y="-15.4" font-family="Times-12" font-size="14.00"> &#160;Module</text>
<polygon fill="#80b1d3" stroke="transparent" points="213,-10 213,-30 233,-30 233,-10 213,-10"/>
<text text-anchor="start" x="236.78" y="-15.4" font-family="Times-12" font-size="14.00"> &#160;Bootstrap</text>
<polygon fill="#fdb462" stroke="transparent" points="310,-10 310,-30 330,-30 330,-10 310,-10"/>
<text text-anchor="start" x="333.67" y="-15.4" font-family="Times-12" font-size="14.00"> &#160;Providers</text>
<polygon fill="#fb8072" stroke="transparent" points="406,-10 406,-30 426,-30 426,-10 406,-10"/>
<text text-anchor="start" x="429.73" y="-15.4" font-family="Times-12" font-size="14.00"> &#160;Exports</text>
<g id="clust1" class="cluster">
<title>cluster_ManagmentModule</title>
<polygon fill="none" stroke="black" stroke-dasharray="1,5" points="60,-70 60,-195 436,-195 436,-70 60,-70"/>
</g>
<g id="clust4" class="cluster">
<title>cluster_ManagmentModule_imports</title>
<polygon fill="none" stroke="black" points="240,-78 240,-130 428,-130 428,-78 240,-78"/>
</g>
<g id="clust2" class="cluster">
<title>cluster_ManagmentModule_declarations</title>
<polygon fill="none" stroke="black" points="68,-78 68,-130 232,-130 232,-78 68,-78"/>
</g>
<!-- ManagmentComponent -->
<g id="node1" class="node">
<title>ManagmentComponent</title>
<polygon fill="#ffffb3" stroke="black" points="224.2,-122 75.8,-122 75.8,-86 224.2,-86 224.2,-122"/>
<text text-anchor="middle" x="150" y="-99.8" font-family="Times,serif" font-size="14.00">ManagmentComponent</text>
</g>
<!-- ManagmentModule -->
<g id="node2" class="node">
<title>ManagmentModule</title>
<polygon fill="#8dd3c7" stroke="black" points="305.42,-187 302.42,-191 281.42,-191 278.42,-187 178.58,-187 178.58,-151 305.42,-151 305.42,-187"/>
<text text-anchor="middle" x="242" y="-164.8" font-family="Times,serif" font-size="14.00">ManagmentModule</text>
</g>
<!-- ManagmentComponent&#45;&gt;ManagmentModule -->
<g id="edge1" class="edge">
<title>ManagmentComponent&#45;&gt;ManagmentModule</title>
<path fill="none" stroke="black" d="M201.45,-122.11C201.45,-122.11 201.45,-140.99 201.45,-140.99"/>
<polygon fill="black" stroke="black" points="197.95,-140.99 201.45,-150.99 204.95,-140.99 197.95,-140.99"/>
</g>
<!-- ManagmentRoutingModule -->
<g id="node3" class="node">
<title>ManagmentRoutingModule</title>
<polygon fill="#8dd3c7" stroke="black" points="419.54,-122 416.54,-126 395.54,-126 392.54,-122 248.46,-122 248.46,-86 419.54,-86 419.54,-122"/>
<text text-anchor="middle" x="334" y="-99.8" font-family="Times,serif" font-size="14.00">ManagmentRoutingModule</text>
</g>
<!-- ManagmentRoutingModule&#45;&gt;ManagmentModule -->
<g id="edge2" class="edge">
<title>ManagmentRoutingModule&#45;&gt;ManagmentModule</title>
<path fill="none" stroke="black" d="M276.72,-122.11C276.72,-122.11 276.72,-140.99 276.72,-140.99"/>
<polygon fill="black" stroke="black" points="273.22,-140.99 276.72,-150.99 280.22,-140.99 273.22,-140.99"/>
</g>
</g>
</svg>
